<?xml version="1.0" encoding="UTF-8"?>
<svg xmlns="http://www.w3.org/2000/svg" xmlns:xlink="http://www.w3.org/1999/xlink" width="185pt" height="269pt" viewBox="0 0 185 269" version="1.1">
<g id="surface1">
<path style="fill-rule:nonzero;fill:rgb(100%,100%,100%);fill-opacity:1;stroke-width:0.499245;stroke-linecap:butt;stroke-linejoin:miter;stroke:rgb(0%,0%,0%);stroke-opacity:1;stroke-miterlimit:4;" d="M 166.835941 235.548091 C 166.835941 239.325644 163.748935 242.416049 159.966911 242.416049 L 7.112463 242.416049 C 3.337495 242.416049 0.250489 239.325644 0.250489 235.548091 L 0.250489 7.118899 C 0.250489 3.341346 3.337495 0.250941 7.112463 0.250941 L 159.966911 0.250941 C 163.748935 0.250941 166.835941 3.341346 166.835941 7.118899 Z M 166.835941 235.548091 " transform="matrix(1.107211,0,0,1.108522,0,-0.000830153)"/>
<path style="fill:none;stroke-width:3.325746;stroke-linecap:butt;stroke-linejoin:miter;stroke:rgb(12.54902%,9.411765%,52.941176%);stroke-opacity:1;stroke-miterlimit:10;" d="M 57.975745 107.960535 C 57.975745 120.195296 48.076157 130.125468 35.876307 130.125468 C 23.679986 130.125468 13.780397 120.195296 13.780397 107.960535 C 13.780397 95.72225 23.679986 85.792078 35.876307 85.792078 C 48.076157 85.792078 57.975745 95.72225 57.975745 107.960535 Z M 57.975745 107.960535 " transform="matrix(1.107211,0,0,1.108522,0,-0.000830153)"/>
<path style="fill:none;stroke-width:3.325746;stroke-linecap:butt;stroke-linejoin:miter;stroke:rgb(0%,0%,0%);stroke-opacity:1;stroke-miterlimit:10;" d="M 106.154214 108.432729 C 106.154214 120.671014 96.254626 130.601186 84.058304 130.601186 C 71.861983 130.601186 61.962394 120.671014 61.962394 108.432729 C 61.962394 96.197968 71.861983 86.267796 84.058304 86.267796 C 96.254626 86.267796 106.154214 96.197968 106.154214 108.432729 Z M 106.154214 108.432729 " transform="matrix(1.107211,0,0,1.108522,0,-0.000830153)"/>
<path style="fill:none;stroke-width:3.325746;stroke-linecap:butt;stroke-linejoin:miter;stroke:rgb(90.196078%,7.843137%,3.137255%);stroke-opacity:1;stroke-miterlimit:10;" d="M 154.55142 108.432729 C 154.55142 120.671014 144.651831 130.601186 132.455509 130.601186 C 120.25566 130.601186 110.356071 120.671014 110.356071 108.432729 C 110.356071 96.197968 120.25566 86.267796 132.455509 86.267796 C 144.651831 86.267796 154.55142 96.197968 154.55142 108.432729 Z M 154.55142 108.432729 " transform="matrix(1.107211,0,0,1.108522,0,-0.000830153)"/>
<path style="fill:none;stroke-width:3.325746;stroke-linecap:butt;stroke-linejoin:miter;stroke:rgb(98.431373%,94.901961%,15.294118%);stroke-opacity:1;stroke-miterlimit:10;" d="M 82.13554 131.735861 C 82.13554 143.970622 72.239479 153.904318 60.03963 153.904318 C 47.843308 153.904318 37.943719 143.970622 37.943719 131.735861 C 37.943719 119.5011 47.843308 109.567404 60.03963 109.567404 C 72.239479 109.567404 82.13554 119.5011 82.13554 131.735861 Z M 82.13554 131.735861 " transform="matrix(1.107211,0,0,1.108522,0,-0.000830153)"/>
<path style="fill:none;stroke-width:3.325746;stroke-linecap:butt;stroke-linejoin:miter;stroke:rgb(6.27451%,55.294118%,20.784314%);stroke-opacity:1;stroke-miterlimit:10;" d="M 130.892602 131.735861 C 130.892602 143.970622 120.993013 153.904318 108.793164 153.904318 C 96.596842 153.904318 86.697254 143.970622 86.697254 131.735861 C 86.697254 119.5011 96.596842 109.567404 108.793164 109.567404 C 120.993013 109.567404 130.892602 119.5011 130.892602 131.735861 Z M 130.892602 131.735861 " transform="matrix(1.107211,0,0,1.108522,0,-0.000830153)"/>
<path style="fill-rule:evenodd;fill:rgb(12.54902%,9.411765%,52.941176%);fill-opacity:1;stroke-width:0.823754;stroke-linecap:butt;stroke-linejoin:miter;stroke:rgb(12.54902%,9.411765%,52.941176%);stroke-opacity:1;stroke-miterlimit:10;" d="M 56.758583 108.105012 C 56.726831 109.556833 56.561014 111.00513 56.395198 111.759231 C 57.069048 111.801517 58.674291 112.89743 58.917723 111.59361 C 59.157628 110.317981 59.288164 108.499682 59.217604 107.143005 C 59.111764 105.786327 57.457128 108.09444 56.758583 108.105012 Z M 56.758583 108.105012 " transform="matrix(1.107211,0,0,1.108522,0,-0.000830153)"/>
<path style="fill-rule:evenodd;fill:rgb(0%,0%,0%);fill-opacity:1;stroke-width:0.823754;stroke-linecap:butt;stroke-linejoin:miter;stroke:rgb(0%,0%,0%);stroke-opacity:1;stroke-miterlimit:10;" d="M 83.709031 129.357271 C 82.25902 129.322033 80.809009 129.156413 80.057544 128.990792 C 80.01168 129.667369 78.914469 131.270715 80.22336 131.513859 C 81.493443 131.757004 82.548317 131.887386 83.903072 131.813385 C 85.257827 131.70767 83.719615 130.054991 83.709031 129.357271 Z M 83.709031 129.357271 " transform="matrix(1.107211,0,0,1.108522,0,-0.000830153)"/>
<path style="fill-rule:evenodd;fill:rgb(0%,0%,0%);fill-opacity:1;stroke-width:0.823754;stroke-linecap:butt;stroke-linejoin:miter;stroke:rgb(0%,0%,0%);stroke-opacity:1;stroke-miterlimit:10;" d="M 104.92294 108.224822 C 104.891188 109.676643 104.788876 111.160178 104.623059 111.910756 C 105.300437 111.956566 106.842176 113.313243 107.08208 112.009423 C 107.321985 110.733794 107.452521 109.384165 107.381961 108.031011 C 107.276121 106.674334 105.621485 108.214251 104.92294 108.224822 Z M 104.92294 108.224822 " transform="matrix(1.107211,0,0,1.108522,0,-0.000830153)"/>
<path style="fill-rule:evenodd;fill:rgb(90.196078%,7.843137%,3.137255%);fill-opacity:1;stroke-width:0.823754;stroke-linecap:butt;stroke-linejoin:miter;stroke:rgb(90.196078%,7.843137%,3.137255%);stroke-opacity:1;stroke-miterlimit:10;" d="M 132.451981 129.353747 C 131.00197 129.322033 129.520207 129.219842 128.768742 129.054221 C 128.722878 129.730798 127.364595 131.270715 128.669958 131.513859 C 129.943568 131.75348 131.294795 131.883862 132.64955 131.809862 C 134.004305 131.70767 132.466093 130.051467 132.451981 129.353747 Z M 132.451981 129.353747 " transform="matrix(1.107211,0,0,1.108522,0,-0.000830153)"/>
</g>
</svg>
